# xmcd CD database file
#
# Track frame offsets:
#	150
#	17754
#	36267
#	57667
#	68412
#	93104
#	112759
#	132927
#	161013
#	186966
#	204493
#	226199
#
# Disc length: 3141 seconds
#
# Revision: 0
# Processed by: cddbd v1.5.1PL0 Copyright (c) Steve Scherf et al.
# Submitted via: CDex 1.51
#
DISCID=970c430c
DTITLE=骨盤 - 骨盤 〜Pelvis〜
DYEAR=1900
DGENRE=テクノ (一般)
TTITLE0=Halcyon
TTITLE1=Blaze Bone
TTITLE2=beat engine
TTITLE3=GOLDEN FLOOR (Cleanup Edit)
TTITLE4=gravitronic
TTITLE5=Hyper Techno Gear
TTITLE6=Penelope
TTITLE7=Gloss
TTITLE8=Razor
TTITLE9=℃
TTITLE10=徒花
TTITLE11=Exit
EXTD=
EXTT0=
EXTT1=
EXTT2=
EXTT3=
EXTT4=
EXTT5=
EXTT6=
EXTT7=
EXTT8=
EXTT9=
EXTT10=
EXTT11=
PLAYORDER=
